<svg xmlns="http://www.w3.org/2000/svg" width="48.438" height="48.438" viewBox="0 0 48.438 48.438">
  <path id="Icon_awesome-user-circle" data-name="Icon awesome-user-circle" d="M24.219.781A24.219,24.219,0,1,0,48.438,25,24.215,24.215,0,0,0,24.219.781Zm0,9.375a8.594,8.594,0,1,1-8.594,8.594A8.594,8.594,0,0,1,24.219,10.156Zm0,33.594A18.714,18.714,0,0,1,9.912,37.09a10.888,10.888,0,0,1,9.619-5.84,2.389,2.389,0,0,1,.693.107,12.93,12.93,0,0,0,3.994.674,12.881,12.881,0,0,0,3.994-.674,2.389,2.389,0,0,1,.693-.107,10.888,10.888,0,0,1,9.619,5.84A18.714,18.714,0,0,1,24.219,43.75Z" transform="translate(0 -0.781)" fill="#363645"/>
</svg>
