<svg xmlns="http://www.w3.org/2000/svg" width="34.875" height="34.875" viewBox="0 0 34.875 34.875">
  <g id="Group_142" data-name="Group 142" transform="translate(-17 -57)">
    <g id="Ellipse_39" data-name="Ellipse 39" transform="translate(20 57.657)" fill="#fff" stroke="#707070" stroke-width="1">
      <ellipse cx="14" cy="16.5" rx="14" ry="16.5" stroke="none"/>
      <ellipse cx="14" cy="16.5" rx="13.5" ry="16" fill="none"/>
    </g>
    <path id="Icon_awesome-user-circle" data-name="Icon awesome-user-circle" d="M17.438.563A17.438,17.438,0,1,0,34.875,18,17.434,17.434,0,0,0,17.438.563Zm0,6.75A6.188,6.188,0,1,1,11.25,13.5,6.188,6.188,0,0,1,17.438,7.313Zm0,24.188a13.474,13.474,0,0,1-10.3-4.8,7.839,7.839,0,0,1,6.926-4.2,1.72,1.72,0,0,1,.5.077,9.309,9.309,0,0,0,2.876.485,9.274,9.274,0,0,0,2.876-.485,1.72,1.72,0,0,1,.5-.077,7.839,7.839,0,0,1,6.926,4.2A13.474,13.474,0,0,1,17.438,31.5Z" transform="translate(17 56.438)" fill="#363645"/>
  </g>
</svg>
